<?xml version="1.0" encoding="utf-8"?>
<!-- Generator: Adobe Illustrator 14.0.0, SVG Export Plug-In  -->
<!DOCTYPE svg PUBLIC "-//W3C//DTD SVG 1.1//EN" "http://www.w3.org/Graphics/SVG/1.1/DTD/svg11.dtd" [
	<!ENTITY ns_flows "http://ns.adobe.com/Flows/1.0/">
]>
<svg version="1.1"
	 xmlns="http://www.w3.org/2000/svg" xmlns:xlink="http://www.w3.org/1999/xlink" xmlns:a="http://ns.adobe.com/AdobeSVGViewerExtensions/3.0/"
	 x="0px" y="0px" width="100px" height="100px" viewBox="0 0 100 100" enable-background="new 0 0 100 100" xml:space="preserve">
<defs>
</defs>
<rect display="none" fill="#00FFFF" width="100" height="100"/>
<path fill="#FFFFFF" stroke="#B3B3B3" stroke-width="1.0659" d="M93.702,95.227c-1.91,1.911-5.008,1.911-6.918,0L59.945,68.39
	l8.168-5.672l25.589,25.59C95.612,90.219,95.612,93.316,93.702,95.227L93.702,95.227z"/>
<path fill="#FFFFFF" stroke="#B3B3B3" stroke-width="1.1628" d="M43.187,8.92c-18.892,0-34.208,15.315-34.208,34.208
	s15.315,34.208,34.208,34.208S77.395,62.02,77.395,43.127S62.079,8.92,43.187,8.92z M43.187,73.558
	c-16.806,0-30.429-13.625-30.429-30.43c0-16.806,13.624-30.429,30.429-30.429c16.805,0,30.43,13.624,30.43,30.429
	C73.617,59.933,59.992,73.558,43.187,73.558z"/>
<path fill="#FFFFFF" stroke="#B3B3B3" stroke-width="0.8899" d="M59.049,39.74H46.575V27.266c0-1.871-1.517-3.388-3.388-3.388
	s-3.388,1.517-3.388,3.388V39.74H27.325c-1.871,0-3.388,1.517-3.388,3.388s1.517,3.388,3.388,3.388h12.475V58.99
	c0,1.871,1.517,3.388,3.388,3.388s3.388-1.517,3.388-3.388V46.516h12.475c1.871,0,3.388-1.517,3.388-3.388S60.92,39.74,59.049,39.74
	z"/>
</svg>
